<?xml version="1.0" standalone="no"?>
<!DOCTYPE svg PUBLIC "-//W3C//DTD SVG 20010904//EN"
 "http://www.w3.org/TR/2001/REC-SVG-20010904/DTD/svg10.dtd">
<svg version="1.0" xmlns="http://www.w3.org/2000/svg"
 width="808.000000pt" height="808.000000pt" viewBox="0 0 808.000000 808.000000"
 preserveAspectRatio="xMidYMid meet">
<metadata>
Created by potrace 1.11, written by Peter Selinger 2001-2013
</metadata>
<g transform="translate(0.000000,808.000000) scale(0.100000,-0.100000)"
fill="#000000" stroke="none">
<path d="M2206 6143 c1 -615 4 -1167 8 -1228 13 -222 18 -272 30 -334 3 -13 8
-46 11 -75 6 -50 5 -51 -27 -70 -291 -168 -607 -440 -760 -656 -77 -108 -185
-318 -223 -432 -63 -190 -88 -353 -88 -563 0 -156 7 -238 34 -369 120 -592
608 -1101 1182 -1231 110 -24 134 -27 292 -30 255 -6 438 34 683 150 210 100
383 227 602 445 255 253 321 331 705 845 368 492 453 594 590 711 198 168 392
246 615 246 112 1 129 -2 217 -27 128 -37 234 -108 338 -226 169 -191 228
-534 140 -809 -8 -25 -15 -48 -15 -53 0 -4 -18 -44 -41 -90 -87 -175 -233
-332 -514 -558 -45 -35 -82 -68 -83 -74 -2 -8 196 -278 233 -319 6 -6 33 -41
60 -78 27 -38 51 -68 55 -68 8 0 207 155 286 224 106 92 273 264 336 346 207
272 317 591 319 923 1 124 -6 187 -38 362 -15 87 -110 320 -166 410 -156 251
-361 429 -622 537 -38 16 -77 31 -85 33 -8 3 -49 13 -90 24 -41 11 -99 23
-130 27 -30 4 -64 8 -75 11 -30 6 -245 5 -287 -1 -21 -4 -54 -8 -73 -11 -19
-3 -56 -10 -82 -16 -27 -6 -52 -12 -58 -13 -41 -9 -136 -41 -181 -61 -30 -13
-51 -19 -47 -12 4 7 22 35 39 63 104 164 185 417 210 659 3 28 7 61 9 75 14
77 19 373 19 1345 l1 1080 -252 3 -253 2 -1 -1092 c0 -601 -2 -1142 -4 -1203
-7 -211 -22 -319 -61 -432 -70 -204 -202 -375 -384 -499 -89 -61 -273 -142
-358 -159 -12 -2 -26 -6 -30 -9 -8 -5 -67 -15 -156 -25 -71 -9 -249 -7 -326 4
-69 9 -206 40 -245 55 -17 7 -37 13 -45 15 -53 11 -230 95 -315 150 -220 140
-346 361 -381 665 -4 30 -8 604 -10 1275 -2 671 -4 1228 -4 1238 0 16 -19 17
-252 17 l-253 0 1 -1117z m488 -2351 c87 -72 236 -158 401 -232 38 -17 195
-69 195 -65 0 2 12 0 28 -6 27 -11 176 -43 245 -53 164 -25 540 -26 662 -3 11
3 36 7 55 11 72 13 87 16 180 42 52 15 119 37 148 50 54 24 64 23 34 -5 -43
-40 -278 -332 -517 -646 -90 -117 -279 -352 -294 -365 -3 -3 -40 -43 -81 -90
-161 -182 -374 -379 -505 -468 -224 -151 -441 -209 -673 -180 -86 10 -262 66
-262 83 0 7 14 15 30 19 17 3 40 15 52 26 12 11 27 20 34 20 14 0 26 25 29 58
3 36 11 35 29 -1 8 -19 22 -40 31 -47 8 -7 15 -20 15 -29 0 -9 12 -22 27 -28
33 -16 53 -16 53 -2 0 6 7 9 15 5 8 -3 15 -1 15 4 0 6 6 10 14 10 8 0 20 16
27 35 7 19 17 35 22 35 5 0 7 15 3 33 -19 105 -17 118 16 87 12 -11 24 -17 27
-13 3 5 17 9 31 11 13 1 27 6 30 10 3 4 12 8 20 10 8 2 34 13 59 24 25 11 50
21 56 23 13 3 43 14 82 31 17 8 36 14 42 14 6 0 11 4 11 8 0 5 6 9 13 9 6 0
39 13 72 28 33 16 64 28 68 27 19 -5 57 49 58 80 2 87 32 81 44 -10 4 -28 11
-50 15 -47 5 3 13 -3 19 -12 6 -10 11 -15 11 -10 0 4 13 1 30 -8 41 -21 68
-19 105 10 l33 24 -4 84 -4 84 53 0 c56 -1 117 18 117 35 0 6 7 8 15 4 8 -3
15 -1 15 5 0 6 4 8 9 4 5 -3 13 0 16 6 4 5 13 8 21 5 24 -9 7 98 -27 165 -10
20 -15 39 -12 43 4 3 1 6 -5 6 -7 0 -12 9 -12 20 0 11 -5 20 -12 20 -6 0 -8 3
-5 7 4 3 2 12 -4 20 -6 7 -9 13 -6 13 3 0 -4 10 -16 23 -12 12 -31 35 -42 51
-11 16 -28 37 -37 48 -10 10 -18 23 -18 29 0 5 -4 7 -10 4 -5 -3 -10 1 -10 10
0 8 -7 18 -15 21 -8 4 -13 9 -12 13 2 3 -7 16 -19 27 -22 21 -23 21 -72 4 -28
-10 -53 -15 -56 -12 -3 3 -6 -1 -6 -8 0 -7 -3 -11 -6 -7 -3 3 -20 -2 -37 -12
-18 -10 -40 -17 -50 -15 -9 1 -15 -2 -11 -7 3 -5 0 -9 -5 -9 -6 0 -13 0 -16
-1 -2 0 -30 -15 -61 -34 -31 -19 -61 -32 -65 -29 -5 3 -9 0 -9 -5 0 -6 -9 -11
-20 -11 -11 0 -20 -4 -20 -10 0 -5 -3 -9 -7 -8 -5 1 -25 -6 -47 -15 -21 -9
-42 -17 -47 -17 -5 0 -9 -5 -9 -12 0 -6 -3 -8 -6 -5 -4 3 -16 1 -28 -5 -11 -7
-24 -11 -28 -10 -5 1 -8 -3 -8 -9 0 -5 -4 -8 -9 -4 -5 3 -12 1 -16 -5 -4 -6
-11 -8 -16 -5 -5 4 -9 1 -9 -4 0 -6 -4 -11 -10 -11 -11 0 -110 -43 -160 -70
-35 -18 -40 -20 -61 -20 -5 0 -7 -5 -4 -10 4 -6 3 -10 -2 -9 -4 1 -10 0 -13
-1 -3 -1 -12 -3 -20 -5 -8 -2 -36 -13 -62 -24 -26 -12 -51 -21 -54 -21 -4 1
-11 -4 -16 -12 -11 -16 -1 56 12 81 4 9 25 52 46 96 20 44 66 121 101 172 35
50 63 96 63 100 0 5 9 19 20 31 12 12 18 22 15 22 -3 0 5 19 17 43 29 56 33
71 32 147 0 102 -50 192 -144 258 -84 59 -199 82 -295 58 -114 -28 -215 -115
-254 -220 -21 -58 -22 -156 -2 -194 6 -12 9 -22 7 -22 -7 0 61 -117 91 -156
13 -17 23 -36 23 -42 0 -7 4 -12 8 -12 4 0 17 -14 27 -31 11 -17 28 -43 37
-58 31 -46 108 -200 111 -221 2 -11 6 -23 10 -26 4 -4 7 -20 7 -35 0 -23 -6
-29 -45 -40 -25 -7 -45 -17 -45 -21 0 -4 -5 -8 -11 -8 -6 0 -41 -13 -77 -29
-37 -16 -73 -31 -81 -33 -12 -3 -61 -44 -61 -52 0 -2 11 -15 25 -30 14 -15 26
-39 26 -54 1 -15 3 -43 6 -62 2 -19 6 -53 8 -75 9 -75 13 -92 34 -133 12 -23
18 -42 14 -42 -5 0 -1 -6 8 -13 9 -7 16 -16 16 -20 1 -4 3 -17 6 -28 3 -10 6
-23 7 -27 1 -4 9 -15 17 -24 22 -24 2 -23 -30 2 -14 11 -28 20 -32 20 -16 0
-136 104 -182 156 -222 257 -318 606 -259 939 10 53 54 174 92 248 107 211
299 407 592 604 l107 71 70 -66 c39 -37 83 -78 99 -90z m-217 -407 c27 -18 55
-74 50 -102 -7 -51 -80 -104 -130 -96 -38 6 -84 37 -91 61 -15 51 -13 72 10
104 41 56 105 69 161 33z m1000 -411 c7 -7 13 -18 13 -24 0 -6 5 -8 10 -5 6 3
10 -1 10 -9 0 -8 9 -21 20 -29 11 -8 17 -17 13 -20 -3 -4 0 -7 7 -7 7 0 11 -2
8 -5 -3 -3 8 -20 23 -36 35 -38 38 -75 7 -85 -13 -4 -25 -6 -27 -5 -2 2 -7 -2
-11 -9 -4 -6 -13 -13 -21 -14 -8 -2 -32 -11 -53 -20 -33 -15 -43 -16 -63 -5
-12 7 -23 15 -23 19 0 4 -11 19 -25 34 -13 14 -22 26 -18 26 3 0 -9 14 -27 30
-18 17 -28 30 -24 30 5 1 0 8 -11 18 -16 13 -19 23 -14 42 4 14 7 21 8 17 1
-5 14 1 31 13 16 12 34 18 40 15 5 -3 10 -1 10 5 0 6 5 8 10 5 6 -3 10 -1 10
5 0 6 5 8 10 5 6 -3 10 -1 10 5 0 6 4 9 9 5 5 -3 12 -2 15 3 8 13 39 10 53 -4z
m-203 -166 c-3 -4 0 -8 5 -8 6 0 31 -28 56 -61 43 -58 45 -63 29 -80 -9 -10
-20 -16 -25 -14 -4 3 -15 -2 -23 -11 -9 -8 -16 -13 -16 -10 0 3 -15 -3 -32
-12 -36 -21 -98 -36 -98 -24 0 6 -11 20 -71 90 -10 12 -16 22 -12 22 4 0 -3 7
-15 16 -12 8 -20 20 -17 25 4 5 -1 9 -9 9 -22 0 -20 42 2 60 9 8 26 16 36 18
11 2 25 10 33 18 8 8 18 12 21 10 4 -2 21 5 37 14 l30 18 37 -36 c20 -19 35
-39 32 -44z m-269 -65 c11 -15 30 -36 43 -47 12 -11 22 -25 22 -31 0 -6 9 -17
19 -25 11 -7 18 -17 15 -22 -3 -4 -1 -8 4 -8 5 0 14 -11 20 -24 9 -21 8 -26
-11 -38 -28 -18 -60 -32 -69 -30 -5 1 -8 -3 -8 -9 0 -5 -4 -7 -10 -4 -5 3 -10
1 -10 -6 0 -7 -3 -10 -6 -6 -4 3 -20 -1 -37 -10 -28 -14 -32 -14 -42 1 -7 8
-15 13 -18 9 -4 -3 -7 0 -7 8 0 8 -9 21 -19 29 -11 7 -18 17 -16 21 3 4 -2 9
-10 13 -8 3 -15 13 -15 21 0 9 -4 13 -10 10 -5 -3 -10 -1 -10 5 0 7 -9 23 -20
37 -20 26 -28 69 -11 59 5 -3 11 0 14 8 3 8 19 17 36 21 19 4 28 11 25 17 -4
6 -3 9 2 6 5 -4 23 0 39 7 46 20 68 17 90 -12z m-260 -83 c-3 -5 1 -10 9 -10
9 0 16 -5 16 -11 0 -6 6 -16 13 -23 6 -7 26 -31 42 -52 17 -21 37 -46 46 -55
35 -35 30 -55 -20 -80 -25 -13 -48 -24 -51 -25 -3 0 -22 -8 -42 -17 -21 -10
-42 -17 -48 -17 -11 0 -60 44 -60 54 0 3 -10 16 -22 29 -37 38 -58 67 -58 77
0 6 -5 10 -11 10 -20 0 -4 51 21 65 43 23 104 48 118 48 6 0 12 4 12 9 0 4 9
8 21 8 11 0 17 -4 14 -10z m-152 -210 c20 -24 37 -50 37 -57 0 -7 4 -13 9 -13
6 0 9 -9 8 -21 -1 -15 -21 -29 -77 -55 -41 -19 -83 -40 -94 -45 -13 -7 -16 -7
-11 0 3 6 -2 11 -12 11 -12 0 -26 18 -41 50 -13 27 -23 50 -21 52 1 2 -8 22
-20 46 -27 53 -24 84 8 97 14 6 43 19 65 30 l41 21 35 -36 c19 -20 52 -56 73
-80z m-283 5 c0 -8 4 -15 9 -15 5 0 15 -17 22 -37 6 -20 21 -51 31 -70 11 -18
17 -33 13 -33 -4 0 -2 -7 5 -15 7 -8 9 -15 4 -15 -5 0 -3 -4 4 -9 11 -6 9 -13
-10 -32 -13 -13 -30 -25 -38 -27 -16 -3 -75 -27 -102 -42 -27 -15 -78 -21 -79
-10 -5 42 -7 50 -8 53 -1 1 -4 21 -6 44 -2 23 -6 62 -9 85 -7 60 2 87 30 94
13 3 21 11 18 16 -4 6 -1 9 7 6 8 -3 28 1 44 8 40 18 65 17 65 -1z"/>
<path d="M3731 938 c-82 -12 -154 -72 -167 -138 -23 -112 8 -168 122 -226 47
-24 85 -50 93 -65 20 -35 7 -76 -30 -98 -37 -23 -85 -14 -136 25 l-31 24 -41
-48 -40 -49 46 -29 c60 -37 110 -52 170 -49 58 3 89 15 132 50 96 81 91 224
-10 291 -24 16 -61 38 -83 49 -21 11 -45 29 -52 41 -21 31 -8 82 27 99 38 20
45 19 106 -12 29 -14 54 -24 56 -22 2 2 15 21 31 42 27 37 27 39 10 58 -40 44
-127 68 -203 57z"/>
<path d="M5961 938 c-105 -18 -174 -95 -174 -194 0 -78 33 -124 120 -165 112
-53 141 -104 87 -154 -39 -37 -65 -36 -138 3 l-48 27 -34 -40 c-19 -22 -34
-45 -34 -51 0 -19 114 -73 165 -79 168 -17 295 138 225 275 -19 37 -83 90
-125 104 -67 21 -102 94 -64 135 11 12 23 21 27 22 4 0 18 3 32 5 17 3 42 -6
70 -24 l45 -28 33 43 c18 24 30 48 27 54 -13 21 -87 60 -128 67 -23 5 -62 5
-86 0z"/>
<path d="M2369 893 c-7 -21 -14 -40 -14 -43 -1 -3 -5 -12 -8 -20 -12 -29 -177
-525 -177 -533 0 -4 28 -7 61 -5 l62 3 34 100 c18 55 48 143 65 195 34 104 35
104 53 -15 4 -22 8 -42 10 -45 1 -3 6 -27 9 -55 4 -27 11 -68 16 -90 5 -22 11
-52 15 -67 4 -23 11 -28 33 -28 32 0 28 -6 142 215 40 77 76 144 80 148 4 5 7
-71 6 -168 0 -97 2 -181 5 -187 3 -5 30 -8 60 -6 l54 3 0 315 -1 315 -60 3
-61 3 -36 -73 c-153 -302 -150 -297 -162 -213 -3 22 -10 63 -15 90 -6 28 -16
82 -23 120 l-14 70 -60 3 -61 3 -13 -38z"/>
<path d="M3027 923 c-3 -5 -8 -32 -12 -62 -4 -30 -9 -63 -11 -75 -2 -12 -6
-40 -9 -63 -6 -48 -14 -107 -21 -143 -20 -112 9 -212 75 -255 101 -67 274 -50
359 34 51 52 74 116 97 276 4 22 8 51 11 65 2 14 6 45 9 70 3 25 8 56 10 70 3
14 7 40 10 58 l5 32 -70 0 c-66 0 -70 -1 -71 -22 -1 -26 -5 -55 -19 -143 -5
-33 -12 -82 -16 -110 -3 -27 -8 -59 -10 -70 -2 -11 -6 -32 -9 -47 -13 -71 -53
-122 -105 -133 -50 -11 -107 4 -131 33 -21 27 -22 59 -4 177 2 17 7 55 10 85
4 30 9 58 11 61 2 4 6 31 9 60 3 30 8 66 11 82 l6 27 -66 0 c-35 0 -67 -3 -69
-7z"/>
<path d="M4019 928 c-3 -13 -9 -49 -11 -78 l-3 -35 63 1 c34 0 62 -3 62 -8 0
-7 -18 -131 -35 -238 -5 -38 -18 -125 -30 -210 -4 -25 -7 -49 -8 -55 -1 -6 27
-11 64 -13 l67 -3 7 57 c4 31 8 66 10 78 2 11 6 41 9 66 3 25 7 54 10 65 4 21
13 81 22 150 3 22 7 53 9 69 5 38 9 41 68 42 75 2 76 2 75 22 -1 9 2 34 5 55
l7 37 -195 0 c-107 0 -195 -1 -196 -2z"/>
<path d="M4739 908 c0 -13 -2 -32 -4 -43 -2 -11 -7 -40 -10 -65 -3 -25 -8 -52
-10 -60 -2 -8 -6 -35 -9 -60 -3 -25 -8 -54 -10 -65 -2 -11 -7 -42 -10 -70 -4
-27 -8 -61 -11 -75 -7 -36 -13 -78 -20 -133 l-7 -48 143 2 c174 3 241 20 298
77 22 21 39 83 35 121 -6 44 -36 93 -69 111 l-25 14 29 30 c45 47 60 82 56
137 -5 63 -29 97 -88 124 -41 19 -67 23 -168 24 -118 2 -119 2 -120 -21z m227
-103 c30 -19 39 -61 19 -92 -20 -29 -53 -43 -106 -43 l-40 0 6 43 c11 72 16
100 21 108 6 11 75 0 100 -16z m-18 -255 c38 -23 52 -53 42 -90 -9 -36 -60
-61 -131 -64 l-61 -3 6 51 c17 133 13 126 65 126 28 0 59 -8 79 -20z"/>
<path d="M5255 918 c-2 -7 -9 -49 -15 -93 -6 -44 -13 -91 -15 -105 -2 -14 -6
-44 -10 -68 -13 -84 -15 -98 -15 -154 -2 -136 74 -207 224 -213 73 -2 150 18
190 52 79 66 94 113 141 428 11 75 16 110 21 138 l4 27 -70 0 c-69 0 -70 0
-71 -27 -2 -32 -5 -56 -12 -98 -4 -16 -9 -52 -13 -80 -3 -27 -8 -57 -9 -66 -2
-9 -6 -40 -10 -70 -8 -65 -37 -135 -66 -160 -47 -41 -144 -36 -180 9 -18 24
-20 35 -15 92 3 36 8 74 10 86 2 12 7 45 11 74 4 29 8 61 10 71 2 9 6 39 10
66 3 26 9 60 11 76 l6 27 -67 0 c-44 0 -67 -4 -70 -12z"/>
</g>
</svg>
